<svg width="22" height="22" viewBox="0 0 22 22" fill="none" xmlns="http://www.w3.org/2000/svg">
<path d="M15.5833 16.5C15.817 16.5003 16.0417 16.5897 16.2116 16.7501C16.3815 16.9105 16.4837 17.1297 16.4974 17.3629C16.5111 17.5962 16.4352 17.8258 16.2853 18.005C16.1353 18.1842 15.9226 18.2993 15.6906 18.3269L15.5833 18.3333H6.41667C6.18303 18.3331 5.9583 18.2436 5.78841 18.0832C5.61852 17.9228 5.51628 17.7036 5.50259 17.4704C5.4889 17.2372 5.56479 17.0075 5.71474 16.8283C5.8647 16.6492 6.07741 16.534 6.30942 16.5064L6.41667 16.5H15.5833ZM18.3333 11.9167C18.5764 11.9167 18.8096 12.0132 18.9815 12.1852C19.1534 12.3571 19.25 12.5902 19.25 12.8333C19.25 13.0764 19.1534 13.3096 18.9815 13.4815C18.8096 13.6534 18.5764 13.75 18.3333 13.75H3.66667C3.42355 13.75 3.19039 13.6534 3.01849 13.4815C2.84658 13.3096 2.75 13.0764 2.75 12.8333C2.75 12.5902 2.84658 12.3571 3.01849 12.1852C3.19039 12.0132 3.42355 11.9167 3.66667 11.9167H18.3333ZM15.5833 7.33333C15.817 7.33359 16.0417 7.42306 16.2116 7.58344C16.3815 7.74383 16.4837 7.96304 16.4974 8.19628C16.5111 8.42952 16.4352 8.65918 16.2853 8.83835C16.1353 9.01751 15.9226 9.13266 15.6906 9.16025L15.5833 9.16667H6.41667C6.18303 9.16641 5.9583 9.07694 5.78841 8.91656C5.61852 8.75617 5.51628 8.53696 5.50259 8.30372C5.4889 8.07048 5.56479 7.84082 5.71474 7.66165C5.8647 7.48249 6.07741 7.36734 6.30942 7.33975L6.41667 7.33333H15.5833ZM18.3333 2.75C18.567 2.75026 18.7917 2.83972 18.9616 3.00011C19.1315 3.1605 19.2337 3.37971 19.2474 3.61295C19.2611 3.84618 19.1852 4.07585 19.0353 4.25501C18.8853 4.43418 18.6726 4.54932 18.4406 4.57692L18.3333 4.58333H3.66667C3.43303 4.58307 3.2083 4.49361 3.03841 4.33322C2.86852 4.17283 2.76628 3.95363 2.75259 3.72039C2.7389 3.48715 2.81479 3.25749 2.96474 3.07832C3.1147 2.89915 3.32741 2.78401 3.55942 2.75642L3.66667 2.75H18.3333Z" fill="black"/>
</svg>
