<svg width="22" height="22" viewBox="0 0 22 22" fill="none" xmlns="http://www.w3.org/2000/svg">
<path d="M12.8333 16.5C13.067 16.5003 13.2917 16.5897 13.4616 16.7501C13.6315 16.9105 13.7337 17.1297 13.7474 17.3629C13.7611 17.5962 13.6852 17.8258 13.5353 18.005C13.3853 18.1842 13.1726 18.2993 12.9406 18.3269L12.8333 18.3333H3.66667C3.43303 18.3331 3.2083 18.2436 3.03841 18.0832C2.86852 17.9228 2.76628 17.7036 2.75259 17.4704C2.7389 17.2372 2.81479 17.0075 2.96474 16.8283C3.1147 16.6492 3.32741 16.534 3.55942 16.5064L3.66667 16.5H12.8333ZM18.3333 11.9167C18.5764 11.9167 18.8096 12.0132 18.9815 12.1852C19.1534 12.3571 19.25 12.5902 19.25 12.8333C19.25 13.0764 19.1534 13.3096 18.9815 13.4815C18.8096 13.6534 18.5764 13.75 18.3333 13.75H3.66667C3.42355 13.75 3.19039 13.6534 3.01849 13.4815C2.84658 13.3096 2.75 13.0764 2.75 12.8333C2.75 12.5902 2.84658 12.3571 3.01849 12.1852C3.19039 12.0132 3.42355 11.9167 3.66667 11.9167H18.3333ZM12.8333 7.33333C13.067 7.33359 13.2917 7.42306 13.4616 7.58344C13.6315 7.74383 13.7337 7.96304 13.7474 8.19628C13.7611 8.42952 13.6852 8.65918 13.5353 8.83835C13.3853 9.01751 13.1726 9.13266 12.9406 9.16025L12.8333 9.16667H3.66667C3.43303 9.16641 3.2083 9.07694 3.03841 8.91656C2.86852 8.75617 2.76628 8.53696 2.75259 8.30372C2.7389 8.07048 2.81479 7.84082 2.96474 7.66165C3.1147 7.48249 3.32741 7.36734 3.55942 7.33975L3.66667 7.33333H12.8333ZM18.3333 2.75C18.567 2.75026 18.7917 2.83972 18.9616 3.00011C19.1315 3.1605 19.2337 3.37971 19.2474 3.61295C19.2611 3.84618 19.1852 4.07585 19.0353 4.25501C18.8853 4.43418 18.6726 4.54932 18.4406 4.57692L18.3333 4.58333H3.66667C3.43303 4.58307 3.2083 4.49361 3.03841 4.33322C2.86852 4.17283 2.76628 3.95363 2.75259 3.72039C2.7389 3.48715 2.81479 3.25749 2.96474 3.07832C3.1147 2.89915 3.32741 2.78401 3.55942 2.75642L3.66667 2.75H18.3333Z" fill="black" fill-opacity="0.87"/>
</svg>
