<svg width="22" height="22" viewBox="0 0 22 22" fill="none" xmlns="http://www.w3.org/2000/svg">
<path d="M9.16667 16.5C8.93303 16.5003 8.7083 16.5897 8.53841 16.7501C8.36852 16.9105 8.26628 17.1297 8.25259 17.3629C8.2389 17.5962 8.31478 17.8258 8.46474 18.005C8.6147 18.1842 8.82741 18.2993 9.05942 18.3269L9.16667 18.3333H18.3333C18.567 18.3331 18.7917 18.2436 18.9616 18.0832C19.1315 17.9228 19.2337 17.7036 19.2474 17.4704C19.2611 17.2372 19.1852 17.0075 19.0353 16.8283C18.8853 16.6492 18.6726 16.534 18.4406 16.5064L18.3333 16.5H9.16667ZM3.66667 11.9167C3.42355 11.9167 3.19039 12.0132 3.01848 12.1852C2.84658 12.3571 2.75 12.5902 2.75 12.8333C2.75 13.0764 2.84658 13.3096 3.01848 13.4815C3.19039 13.6534 3.42355 13.75 3.66667 13.75H18.3333C18.5764 13.75 18.8096 13.6534 18.9815 13.4815C19.1534 13.3096 19.25 13.0764 19.25 12.8333C19.25 12.5902 19.1534 12.3571 18.9815 12.1852C18.8096 12.0132 18.5764 11.9167 18.3333 11.9167H3.66667ZM9.16667 7.33333C8.93303 7.33359 8.7083 7.42306 8.53841 7.58344C8.36852 7.74383 8.26628 7.96304 8.25259 8.19628C8.2389 8.42952 8.31478 8.65918 8.46474 8.83835C8.6147 9.01751 8.82741 9.13266 9.05942 9.16025L9.16667 9.16667H18.3333C18.567 9.16641 18.7917 9.07694 18.9616 8.91656C19.1315 8.75617 19.2337 8.53696 19.2474 8.30372C19.2611 8.07048 19.1852 7.84082 19.0353 7.66165C18.8853 7.48249 18.6726 7.36734 18.4406 7.33975L18.3333 7.33333H9.16667ZM3.66667 2.75C3.43303 2.75026 3.2083 2.83972 3.03841 3.00011C2.86852 3.1605 2.76628 3.37971 2.75259 3.61295C2.7389 3.84618 2.81479 4.07585 2.96474 4.25501C3.1147 4.43418 3.32741 4.54932 3.55942 4.57692L3.66667 4.58333H18.3333C18.567 4.58307 18.7917 4.49361 18.9616 4.33322C19.1315 4.17283 19.2337 3.95363 19.2474 3.72039C19.2611 3.48715 19.1852 3.25749 19.0353 3.07832C18.8853 2.89915 18.6726 2.78401 18.4406 2.75642L18.3333 2.75H3.66667Z" fill="black" fill-opacity="0.87"/>
</svg>
