<svg width="24" height="24" viewBox="0 0 24 24" fill="none" xmlns="http://www.w3.org/2000/svg">
<path d="M15.125 12.625C15.125 13.4538 14.7958 14.2487 14.2097 14.8347C13.6237 15.4208 12.8288 15.75 12 15.75C11.1712 15.75 10.3763 15.4208 9.79029 14.8347C9.20424 14.2487 8.875 13.4538 8.875 12.625C8.875 11.7962 9.20424 11.0013 9.79029 10.4153C10.3763 9.82924 11.1712 9.5 12 9.5C12.8288 9.5 13.6237 9.82924 14.2097 10.4153C14.7958 11.0013 15.125 11.7962 15.125 12.625Z" fill="black" fill-opacity="0.87"/>
<path d="M4.5 7C3.83696 7 3.20107 7.26339 2.73223 7.73223C2.26339 8.20107 2 8.83696 2 9.5L2 17C2 17.663 2.26339 18.2989 2.73223 18.7678C3.20107 19.2366 3.83696 19.5 4.5 19.5H19.5C20.163 19.5 20.7989 19.2366 21.2678 18.7678C21.7366 18.2989 22 17.663 22 17V9.5C22 8.83696 21.7366 8.20107 21.2678 7.73223C20.7989 7.26339 20.163 7 19.5 7H18.035C17.372 6.99986 16.7362 6.73637 16.2675 6.2675L15.2325 5.2325C14.7638 4.76363 14.128 4.50014 13.465 4.5H10.535C9.87201 4.50014 9.23623 4.76363 8.7675 5.2325L7.7325 6.2675C7.26377 6.73637 6.62799 6.99986 5.965 7H4.5ZM5.125 9.5C4.95924 9.5 4.80027 9.43415 4.68306 9.31694C4.56585 9.19973 4.5 9.04076 4.5 8.875C4.5 8.70924 4.56585 8.55027 4.68306 8.43306C4.80027 8.31585 4.95924 8.25 5.125 8.25C5.29076 8.25 5.44973 8.31585 5.56694 8.43306C5.68415 8.55027 5.75 8.70924 5.75 8.875C5.75 9.04076 5.68415 9.19973 5.56694 9.31694C5.44973 9.43415 5.29076 9.5 5.125 9.5ZM16.375 12.625C16.375 13.7853 15.9141 14.8981 15.0936 15.7186C14.2731 16.5391 13.1603 17 12 17C10.8397 17 9.72688 16.5391 8.90641 15.7186C8.08594 14.8981 7.625 13.7853 7.625 12.625C7.625 11.4647 8.08594 10.3519 8.90641 9.53141C9.72688 8.71094 10.8397 8.25 12 8.25C13.1603 8.25 14.2731 8.71094 15.0936 9.53141C15.9141 10.3519 16.375 11.4647 16.375 12.625Z" fill="black" fill-opacity="0.87"/>
</svg>
